name rise30.9205peak61.366fall85.3838.mot
datacolumns 19
datarows 30
range 19.82992900000000 19.87825700000000
endheader
time	ground_force1_vx	ground_force1_vy	ground_force1_vz	ground_force1_px	ground_force1_py	ground_force1_pz	ground_force2_vx	ground_force2_vy	ground_force2_vz	ground_force2_px	ground_force2_py	ground_force2_pz	ground_torque1_x	ground_torque1_y	ground_torque1_z	ground_torque2_x	ground_torque2_y	ground_torque2_z	
19.82992900000000	61.88547800000000	775.95353000000000	51.99392000000000	0.33938100000000	0.00000000000000	0.10508500000000	0.00000000000000	0.00000000000000	0.00000000000000	0.00000000000000	0.00000000000000	0.00000000000000	0.00000000000000	21.54086200000000	0.00000000000000	0.00000000000000	0.00000000000000	0.00000000000000	
19.83159100000000	61.31650000000000	777.99830699999995	52.02367800000000	0.33837600000000	0.00000000000000	0.10507500000000	0.00000000000000	0.00000000000000	0.00000000000000	0.00000000000000	0.00000000000000	0.00000000000000	0.00000000000000	21.56033700000000	0.00000000000000	0.00000000000000	0.00000000000000	0.00000000000000	
19.83326300000000	60.75374900000000	779.93420600000002	52.05296100000000	0.33740400000000	0.00000000000000	0.10506500000000	0.00000000000000	0.00000000000000	0.00000000000000	0.00000000000000	0.00000000000000	0.00000000000000	0.00000000000000	21.58192200000000	0.00000000000000	0.00000000000000	0.00000000000000	0.00000000000000	
19.83492200000000	60.19713400000000	781.75930900000003	52.08107700000000	0.33646200000000	0.00000000000000	0.10505600000000	0.00000000000000	0.00000000000000	0.00000000000000	0.00000000000000	0.00000000000000	0.00000000000000	0.00000000000000	21.60515400000000	0.00000000000000	0.00000000000000	0.00000000000000	0.00000000000000	
19.83660300000000	59.64651200000000	783.47181599999999	52.10730400000000	0.33555100000000	0.00000000000000	0.10504500000000	0.00000000000000	0.00000000000000	0.00000000000000	0.00000000000000	0.00000000000000	0.00000000000000	0.00000000000000	21.62954100000000	0.00000000000000	0.00000000000000	0.00000000000000	0.00000000000000	
19.83826200000000	59.10168800000000	785.07005900000001	52.13089100000000	0.33466700000000	0.00000000000000	0.10503500000000	0.00000000000000	0.00000000000000	0.00000000000000	0.00000000000000	0.00000000000000	0.00000000000000	0.00000000000000	21.65457100000000	0.00000000000000	0.00000000000000	0.00000000000000	0.00000000000000	
19.83992200000000	58.56242500000000	786.55251399999997	52.15106900000000	0.33381100000000	0.00000000000000	0.10502500000000	0.00000000000000	0.00000000000000	0.00000000000000	0.00000000000000	0.00000000000000	0.00000000000000	0.00000000000000	21.67971600000000	0.00000000000000	0.00000000000000	0.00000000000000	0.00000000000000	
19.84159300000000	58.02844000000000	787.91781200000003	52.16705900000000	0.33298000000000	0.00000000000000	0.10501500000000	0.00000000000000	0.00000000000000	0.00000000000000	0.00000000000000	0.00000000000000	0.00000000000000	0.00000000000000	21.70443300000000	0.00000000000000	0.00000000000000	0.00000000000000	0.00000000000000	
19.84326300000000	57.49942000000000	789.16475300000002	52.17807400000000	0.33217200000000	0.00000000000000	0.10500400000000	0.00000000000000	0.00000000000000	0.00000000000000	0.00000000000000	0.00000000000000	0.00000000000000	0.00000000000000	21.72817500000000	0.00000000000000	0.00000000000000	0.00000000000000	0.00000000000000	
19.84492300000000	56.97501600000000	790.29231200000004	52.18333300000000	0.33138700000000	0.00000000000000	0.10499300000000	0.00000000000000	0.00000000000000	0.00000000000000	0.00000000000000	0.00000000000000	0.00000000000000	0.00000000000000	21.75038700000000	0.00000000000000	0.00000000000000	0.00000000000000	0.00000000000000	
19.84658900000000	56.45485800000000	791.29965000000004	52.18206500000000	0.33062100000000	0.00000000000000	0.10498200000000	0.00000000000000	0.00000000000000	0.00000000000000	0.00000000000000	0.00000000000000	0.00000000000000	0.00000000000000	21.77051800000000	0.00000000000000	0.00000000000000	0.00000000000000	0.00000000000000	
19.84826400000000	55.93855000000000	792.18612099999996	52.17351400000000	0.32987400000000	0.00000000000000	0.10497100000000	0.00000000000000	0.00000000000000	0.00000000000000	0.00000000000000	0.00000000000000	0.00000000000000	0.00000000000000	21.78802100000000	0.00000000000000	0.00000000000000	0.00000000000000	0.00000000000000	
19.84992400000000	55.42568200000000	792.95128099999999	52.15695100000000	0.32914300000000	0.00000000000000	0.10495900000000	0.00000000000000	0.00000000000000	0.00000000000000	0.00000000000000	0.00000000000000	0.00000000000000	0.00000000000000	21.80235900000000	0.00000000000000	0.00000000000000	0.00000000000000	0.00000000000000	
19.85160700000000	54.91583200000000	793.59489099999996	52.13167200000000	0.32842600000000	0.00000000000000	0.10494700000000	0.00000000000000	0.00000000000000	0.00000000000000	0.00000000000000	0.00000000000000	0.00000000000000	0.00000000000000	21.81300800000000	0.00000000000000	0.00000000000000	0.00000000000000	0.00000000000000	
19.85325900000000	54.40857000000000	794.11692500000004	52.09701300000000	0.32772100000000	0.00000000000000	0.10493500000000	0.00000000000000	0.00000000000000	0.00000000000000	0.00000000000000	0.00000000000000	0.00000000000000	0.00000000000000	21.81946200000000	0.00000000000000	0.00000000000000	0.00000000000000	0.00000000000000	
19.85493000000000	53.90346000000000	794.51757299999997	52.05235000000000	0.32702500000000	0.00000000000000	0.10492200000000	0.00000000000000	0.00000000000000	0.00000000000000	0.00000000000000	0.00000000000000	0.00000000000000	0.00000000000000	21.82123400000000	0.00000000000000	0.00000000000000	0.00000000000000	0.00000000000000	
19.85661500000000	53.40007000000000	794.79724099999999	51.99710400000000	0.32633700000000	0.00000000000000	0.10490900000000	0.00000000000000	0.00000000000000	0.00000000000000	0.00000000000000	0.00000000000000	0.00000000000000	0.00000000000000	21.81786400000000	0.00000000000000	0.00000000000000	0.00000000000000	0.00000000000000	
19.85826200000000	52.89797000000000	794.95655599999998	51.93074800000000	0.32565500000000	0.00000000000000	0.10489600000000	0.00000000000000	0.00000000000000	0.00000000000000	0.00000000000000	0.00000000000000	0.00000000000000	0.00000000000000	21.80891700000000	0.00000000000000	0.00000000000000	0.00000000000000	0.00000000000000	
19.85992500000000	52.39673900000000	794.99636599999997	51.85281200000000	0.32497600000000	0.00000000000000	0.10488300000000	0.00000000000000	0.00000000000000	0.00000000000000	0.00000000000000	0.00000000000000	0.00000000000000	0.00000000000000	21.79399200000000	0.00000000000000	0.00000000000000	0.00000000000000	0.00000000000000	
19.86158900000000	51.89596600000000	794.91773999999998	51.76288200000000	0.32429800000000	0.00000000000000	0.10487000000000	0.00000000000000	0.00000000000000	0.00000000000000	0.00000000000000	0.00000000000000	0.00000000000000	0.00000000000000	21.77272000000000	0.00000000000000	0.00000000000000	0.00000000000000	0.00000000000000	
19.86325500000000	51.39525800000000	794.72196399999996	51.66061000000000	0.32361900000000	0.00000000000000	0.10485700000000	0.00000000000000	0.00000000000000	0.00000000000000	0.00000000000000	0.00000000000000	0.00000000000000	0.00000000000000	21.74476700000000	0.00000000000000	0.00000000000000	0.00000000000000	0.00000000000000	
19.86492500000000	50.89423300000000	794.41054399999996	51.54570800000000	0.32293700000000	0.00000000000000	0.10484300000000	0.00000000000000	0.00000000000000	0.00000000000000	0.00000000000000	0.00000000000000	0.00000000000000	0.00000000000000	21.70983900000000	0.00000000000000	0.00000000000000	0.00000000000000	0.00000000000000	
19.86659100000000	50.39253600000000	793.98519899999997	51.41796100000000	0.32224900000000	0.00000000000000	0.10483000000000	0.00000000000000	0.00000000000000	0.00000000000000	0.00000000000000	0.00000000000000	0.00000000000000	0.00000000000000	21.66768400000000	0.00000000000000	0.00000000000000	0.00000000000000	0.00000000000000	
19.86826000000000	49.88982800000000	793.44785500000000	51.27721800000000	0.32155400000000	0.00000000000000	0.10481600000000	0.00000000000000	0.00000000000000	0.00000000000000	0.00000000000000	0.00000000000000	0.00000000000000	0.00000000000000	21.61808800000000	0.00000000000000	0.00000000000000	0.00000000000000	0.00000000000000	
19.86993100000000	49.38579800000000	792.80064700000003	51.12340100000000	0.32084900000000	0.00000000000000	0.10480300000000	0.00000000000000	0.00000000000000	0.00000000000000	0.00000000000000	0.00000000000000	0.00000000000000	0.00000000000000	21.56088500000000	0.00000000000000	0.00000000000000	0.00000000000000	0.00000000000000	
19.87160300000000	48.88016100000000	792.04590700000006	50.95650200000000	0.32013200000000	0.00000000000000	0.10479000000000	0.00000000000000	0.00000000000000	0.00000000000000	0.00000000000000	0.00000000000000	0.00000000000000	0.00000000000000	21.49594800000000	0.00000000000000	0.00000000000000	0.00000000000000	0.00000000000000	
19.87326300000000	48.37265800000000	791.18616199999997	50.77658200000000	0.31940300000000	0.00000000000000	0.10477800000000	0.00000000000000	0.00000000000000	0.00000000000000	0.00000000000000	0.00000000000000	0.00000000000000	0.00000000000000	21.42320000000000	0.00000000000000	0.00000000000000	0.00000000000000	0.00000000000000	
19.87492200000000	47.86306000000000	790.22412099999997	50.58377600000000	0.31865800000000	0.00000000000000	0.10476600000000	0.00000000000000	0.00000000000000	0.00000000000000	0.00000000000000	0.00000000000000	0.00000000000000	0.00000000000000	21.34260700000000	0.00000000000000	0.00000000000000	0.00000000000000	0.00000000000000	
19.87659800000000	47.35116800000000	789.16267600000003	50.37828500000000	0.31789500000000	0.00000000000000	0.10475400000000	0.00000000000000	0.00000000000000	0.00000000000000	0.00000000000000	0.00000000000000	0.00000000000000	0.00000000000000	21.25417900000000	0.00000000000000	0.00000000000000	0.00000000000000	0.00000000000000	
19.87825700000000	46.83681500000000	788.00488399999995	50.16037800000000	0.31711500000000	0.00000000000000	0.10474300000000	0.00000000000000	0.00000000000000	0.00000000000000	0.00000000000000	0.00000000000000	0.00000000000000	0.00000000000000	21.15797500000000	0.00000000000000	0.00000000000000	0.00000000000000	0.00000000000000	
